<svg version="1.2" xmlns="http://www.w3.org/2000/svg" viewBox="0 0 100 100" width="100" height="100">
	<title>New Project</title>
	<style>
		.s0 { fill: #000000 } 
		.s1 { fill: #ffffff } 
	</style>
	<path id="Shape 1" class="s0" d="m0 0h100v100h-100z"/>
	<path id="S" class="s1" aria-label="S"  d="m59.9 33.2v4.6q-2.7-1.3-5.1-1.9-2.4-0.7-4.6-0.7-3.8 0-6 1.5-2 1.5-2 4.3 0 2.3 1.3 3.5 1.4 1.2 5.3 1.9l2.9 0.6q5.3 1 7.8 3.5 2.5 2.6 2.5 6.8 0 5.1-3.4 7.8-3.4 2.6-10 2.6-2.5 0-5.3-0.6-2.8-0.5-5.8-1.6v-4.9q2.9 1.6 5.7 2.4 2.8 0.8 5.4 0.8 4.1 0 6.3-1.6 2.2-1.6 2.2-4.5 0-2.6-1.6-4-1.6-1.5-5.2-2.2l-2.9-0.6q-5.3-1-7.6-3.3-2.4-2.2-2.4-6.2 0-4.7 3.3-7.4 3.2-2.6 9-2.6 2.4 0 5 0.4 2.6 0.5 5.2 1.4z"/>
	<path id=" h" class="s1" aria-label="
h"  d="m52.6 86v4h-1.1v-3.9q0-1-0.4-1.4-0.3-0.5-1-0.5-0.9 0-1.4 0.6-0.5 0.5-0.5 1.5v3.7h-1.1v-9.1h1.1v3.6q0.4-0.6 0.9-0.9 0.5-0.3 1.2-0.3 1.1 0 1.7 0.7 0.6 0.7 0.6 2z"/>
</svg>